# xmcd
#
# Track frame offsets: 
#        150
#        8139
#        18560
#        28820
#        39756
#        52336
#        63035
#        74027
#        85486
#        96756
#        109023
#        118350
#        129976
#        142110
#        152719
#        163202
#        172202
#        182887
#        194109
#        204439
#        212624
#        225302
#        235630
#        248486
#        260160
#        272301
#
# Disc length: 3747 seconds
#
# Revision: 0
# Processed by: cddbd v1.5.2PL0 Copyright (c) Steve Scherf et al.
# Submitted via: ExactAudioCopy v0.99pb4
#
DISCID=7c0ea11a
DTITLE=Various Artist - Northern Boys
DYEAR=1967
DGENRE=Soul
TTITLE0=Charles Sheffield - It's Your Voodoo Working
TTITLE1=Earl (Connelly) King - Every Whicha Kinda Way
TTITLE2=Carl Lester and The Showstoppers - When You See Me Hurt
TTITLE3=Ronnie Love - Chills and Fever
TTITLE4=Prince Conley - I'm Going Home
TTITLE5=J.J. Jackson - Let The Show Begin
TTITLE6=Joe Simon - I See Your Face
TTITLE7=Roy Hamilton - Earthquake
TTITLE8=Egyptians - Party Stomp
TTITLE9=Harvey - Any Way You Wanta
TTITLE10=Mike Pedicin - Burnt Toast And Black Coffee
TTITLE11=Earl Connelly - Just To Hold My Hand
TTITLE12=Ernie K-Doe - A Certain Girl
TTITLE13=Russell Byrd - You'd Better Come Home
TTITLE14=The Pentagons - I Wonder (If Your Love Will Ever Belong To Me
TTITLE14=)
TTITLE15=Ed Townsend - Cherrigale
TTITLE16=Harold Jackson and The Jackson Brothers - The Freedom Riders
TTITLE17=The Fabulous Playboys - Honkey Tonk Woman
TTITLE18=Major Lance - I've Got A Girl
TTITLE19=Johnny Twovoice - Superman
TTITLE20=Charles Sheffield - The Kangaroo
TTITLE21=The Eventuals - Charlie Chan
TTITLE22=Nolan Strong and The Diablos - If I (Could Be With You Tonight)
TTITLE23=Freddie North - Just To Please You
TTITLE24=Jerry Jackson - Wide Awake In A Dream
TTITLE25=Billy Beasley - A Million Teardrops
EXTD=
EXTT0=
EXTT1=
EXTT2=
EXTT3=
EXTT4=
EXTT5=
EXTT6=
EXTT7=
EXTT8=
EXTT9=
EXTT10=
EXTT11=
EXTT12=
EXTT13=
EXTT14=
EXTT15=
EXTT16=
EXTT17=
EXTT18=
EXTT19=
EXTT20=
EXTT21=
EXTT22=
EXTT23=
EXTT24=
EXTT25=
PLAYORDER=
